<svg width="687" height="210" viewBox="0 0 687 210" fill="none" xmlns="http://www.w3.org/2000/svg">
<path d="M78.734 23.9316H134.984V94H126.195V32.1348H87.4742V94H78.734V23.9316ZM182.738 54.5469H204.32C207.087 54.5469 209.333 54.2051 211.058 53.5215C213.142 52.6426 214.802 51.3242 216.039 49.5664C217.276 47.776 217.894 45.709 217.894 43.3652C217.894 41.0215 217.259 38.9544 215.99 37.1641C214.753 35.3737 213.109 34.0553 211.058 33.209C209.496 32.5254 207.233 32.1836 204.271 32.1836H182.738V54.5469ZM182.738 94H174.047V23.9805H205.248C209.479 23.9805 212.979 24.6478 215.746 25.9824C219.066 27.5124 221.686 29.8073 223.607 32.8672C225.56 35.9271 226.537 39.4102 226.537 43.3164C226.537 47.1576 225.56 50.6081 223.607 53.668C221.654 56.7279 219.017 59.0391 215.697 60.6016C212.963 61.9362 209.479 62.6035 205.248 62.6035H182.738V94ZM329.222 58.9414C329.222 65.4844 327.676 71.4414 324.584 76.8125C321.524 82.151 317.276 86.3503 311.839 89.4102C306.436 92.4701 300.397 94 293.724 94C288.744 94 284.056 93.1048 279.662 91.3145C275.267 89.4915 271.491 87.0339 268.334 83.9414C265.209 80.849 262.735 77.138 260.912 72.8086C259.121 68.4466 258.226 63.8242 258.226 58.9414C258.226 54.0586 259.121 49.4688 260.912 45.1719C262.735 40.8424 265.209 37.1315 268.334 34.0391C271.491 30.9141 275.267 28.4564 279.662 26.666C284.056 24.8431 288.744 23.9316 293.724 23.9316C298.705 23.9316 303.392 24.8431 307.787 26.666C312.214 28.4564 315.99 30.9141 319.115 34.0391C322.24 37.1315 324.698 40.8424 326.488 45.1719C328.311 49.4688 329.222 54.0586 329.222 58.9414ZM320.384 58.9414C320.384 51.2917 317.862 44.9277 312.816 39.8496C307.803 34.7389 301.439 32.1836 293.724 32.1836C286.009 32.1836 279.629 34.7389 274.584 39.8496C269.571 44.9277 267.064 51.2917 267.064 58.9414C267.064 66.6237 269.571 73.0202 274.584 78.1309C279.629 83.209 286.009 85.748 293.724 85.748C301.439 85.748 307.803 83.209 312.816 78.1309C317.862 73.0202 320.384 66.6237 320.384 58.9414ZM430.736 48.0527L422.533 50.7383C420.808 45.0742 417.65 40.5658 413.06 37.2129C408.503 33.8275 403.132 32.1348 396.947 32.1348C389.265 32.1348 382.901 34.6901 377.855 39.8008C372.81 44.8789 370.287 51.2591 370.287 58.9414C370.287 66.5586 372.81 72.9388 377.855 78.082C382.901 83.1927 389.265 85.748 396.947 85.748C403.197 85.748 408.601 84.0391 413.158 80.6211C417.748 77.2031 420.889 72.597 422.582 66.8027L430.931 69.3906C428.783 76.7474 424.6 82.6882 418.382 87.2129C412.198 91.7376 405.052 94 396.947 94C392.032 94 387.377 93.1048 382.982 91.3145C378.62 89.5241 374.86 87.0827 371.703 83.9902C368.545 80.8978 366.039 77.1868 364.183 72.8574C362.36 68.4954 361.449 63.8568 361.449 58.9414C361.449 54.0586 362.36 49.4688 364.183 45.1719C366.006 40.8424 368.48 37.1315 371.605 34.0391C374.763 30.9141 378.539 28.4564 382.933 26.666C387.328 24.8431 391.999 23.9316 396.947 23.9316C404.955 23.9316 412.019 26.1289 418.138 30.5234C424.291 34.8854 428.49 40.7285 430.736 48.0527ZM462.181 23.9316H519.798V32.1348H495.336V94H486.595V32.1348H462.181V23.9316ZM622.484 58.9414C622.484 65.4844 620.938 71.4414 617.845 76.8125C614.785 82.151 610.537 86.3503 605.101 89.4102C599.698 92.4701 593.659 94 586.986 94C582.005 94 577.318 93.1048 572.923 91.3145C568.529 89.4915 564.753 87.0339 561.595 83.9414C558.47 80.849 555.996 77.138 554.173 72.8086C552.383 68.4466 551.488 63.8242 551.488 58.9414C551.488 54.0586 552.383 49.4688 554.173 45.1719C555.996 40.8424 558.47 37.1315 561.595 34.0391C564.753 30.9141 568.529 28.4564 572.923 26.666C577.318 24.8431 582.005 23.9316 586.986 23.9316C591.966 23.9316 596.654 24.8431 601.048 26.666C605.476 28.4564 609.252 30.9141 612.377 34.0391C615.502 37.1315 617.959 40.8424 619.75 45.1719C621.573 49.4688 622.484 54.0586 622.484 58.9414ZM613.646 58.9414C613.646 51.2917 611.123 44.9277 606.078 39.8496C601.065 34.7389 594.701 32.1836 586.986 32.1836C579.271 32.1836 572.891 34.7389 567.845 39.8496C562.832 44.9277 560.326 51.2917 560.326 58.9414C560.326 66.6237 562.832 73.0202 567.845 78.1309C572.891 83.209 579.271 85.748 586.986 85.748C594.701 85.748 601.065 83.209 606.078 78.1309C611.123 73.0202 613.646 66.6237 613.646 58.9414Z" fill="black" fill-opacity="0.7"/>
<path d="M118.815 168.134L113.483 169.88C112.361 166.198 110.309 163.268 107.326 161.088C104.363 158.888 100.872 157.788 96.8519 157.788C91.8584 157.788 87.7218 159.449 84.4422 162.771C81.1626 166.071 79.5228 170.218 79.5228 175.212C79.5228 180.163 81.1626 184.31 84.4422 187.653C87.7218 190.975 91.8584 192.636 96.8519 192.636C100.914 192.636 104.427 191.525 107.389 189.304C110.372 187.082 112.414 184.088 113.514 180.322L118.942 182.004C117.545 186.786 114.826 190.647 110.785 193.588C106.765 196.529 102.12 198 96.8519 198C93.6569 198 90.6312 197.418 87.7747 196.254C84.9394 195.091 82.4956 193.504 80.4432 191.494C78.3908 189.484 76.7615 187.071 75.5555 184.257C74.3706 181.422 73.7781 178.407 73.7781 175.212C73.7781 172.038 74.3706 169.055 75.5555 166.262C76.7404 163.448 78.3484 161.035 80.3797 159.025C82.4321 156.994 84.8865 155.397 87.743 154.233C90.5994 153.048 93.6357 152.456 96.8519 152.456C102.057 152.456 106.648 153.884 110.626 156.74C114.625 159.576 117.355 163.374 118.815 168.134ZM177.51 157.756H159.896C159.896 165.077 159.589 171.044 158.975 175.656C158.044 182.491 156.404 188.172 154.056 192.7H177.51V157.756ZM183.191 152.456V192.7H189.444V207.363H183.794V198H148.66V207.363H142.947V192.7H147.962C150.586 188.299 152.363 182.48 153.294 175.244C153.421 174.313 153.527 173.339 153.611 172.324C153.717 171.287 153.802 170.367 153.865 169.562C153.95 168.758 154.013 167.743 154.056 166.516C154.098 165.267 154.13 164.347 154.151 163.754C154.193 163.162 154.225 162.157 154.246 160.739C154.267 159.322 154.278 158.422 154.278 158.042C154.299 157.661 154.31 156.687 154.31 155.122C154.331 153.535 154.341 152.646 154.341 152.456H183.191ZM216.369 152.456H246.489V157.756H222.019V170.388H241.284V175.625H222.019V192.731H246.489V198H216.369V152.456ZM283.983 152.487H312.992V198H307.343V157.819H289.664V180.861C289.664 184.204 289.199 186.987 288.268 189.208C287.337 191.896 285.909 194.043 283.983 195.651C282.058 197.238 279.688 198.032 276.874 198.032C274.589 198.032 272.42 197.482 270.368 196.381L273.002 191.303C274.208 192.001 275.499 192.351 276.874 192.351C280.048 192.351 282.142 190.573 283.158 187.019C283.708 185.537 283.983 183.39 283.983 180.576V152.487ZM375.782 198L372.005 188.669H348.741L344.996 198H338.997L357.628 152.487H363.182L381.749 198H375.782ZM360.421 159.501L350.836 183.4H369.91L360.421 159.501ZM417.053 152.487H446.062V198H440.412V157.819H422.734V180.861C422.734 184.204 422.269 186.987 421.338 189.208C420.407 191.896 418.978 194.043 417.053 195.651C415.128 197.238 412.758 198.032 409.944 198.032C407.659 198.032 405.49 197.482 403.437 196.381L406.072 191.303C407.278 192.001 408.568 192.351 409.944 192.351C413.117 192.351 415.212 190.573 416.228 187.019C416.778 185.537 417.053 183.39 417.053 180.576V152.487ZM475.431 198V191.494H482.001V198H475.431ZM517.02 172.355H531.048C532.847 172.355 534.307 172.133 535.428 171.689C536.782 171.118 537.861 170.261 538.665 169.118C539.469 167.954 539.871 166.611 539.871 165.087C539.871 163.564 539.459 162.22 538.634 161.057C537.829 159.893 536.761 159.036 535.428 158.486C534.412 158.042 532.942 157.819 531.016 157.819H517.02V172.355ZM517.02 198H511.37V152.487H531.651C534.402 152.487 536.676 152.921 538.475 153.789C540.633 154.783 542.336 156.275 543.585 158.264C544.854 160.253 545.489 162.517 545.489 165.056C545.489 167.552 544.854 169.795 543.585 171.784C542.315 173.773 540.601 175.275 538.443 176.291C536.666 177.159 534.402 177.592 531.651 177.592H517.02V198ZM598.122 162.707V187.685C602.926 187.473 606.872 186.215 609.961 183.908C613.071 181.581 614.626 178.671 614.626 175.18C614.626 171.71 613.071 168.822 609.961 166.516C606.872 164.188 602.926 162.919 598.122 162.707ZM592.473 187.685V162.707C587.691 162.919 583.756 164.188 580.666 166.516C577.577 168.822 576.033 171.71 576.033 175.18C576.033 178.671 577.567 181.581 580.635 183.908C583.703 186.215 587.649 187.473 592.473 187.685ZM598.154 152.456V157.438C600.461 157.544 602.682 157.872 604.819 158.422C606.977 158.951 608.998 159.724 610.881 160.739C612.764 161.734 614.404 162.919 615.801 164.294C617.197 165.648 618.297 167.267 619.101 169.15C619.906 171.012 620.308 173.022 620.308 175.18C620.308 177.338 619.906 179.359 619.101 181.242C618.297 183.104 617.197 184.723 615.801 186.098C614.404 187.452 612.764 188.637 610.881 189.653C608.998 190.647 606.977 191.42 604.819 191.97C602.682 192.499 600.461 192.827 598.154 192.954V198H592.473V192.954C590.23 192.869 588.04 192.562 585.903 192.033C583.766 191.504 581.756 190.732 579.873 189.716C578.011 188.701 576.371 187.505 574.954 186.13C573.536 184.733 572.414 183.094 571.589 181.21C570.764 179.327 570.351 177.317 570.351 175.18C570.351 173.022 570.753 171.012 571.558 169.15C572.383 167.267 573.494 165.648 574.89 164.294C576.287 162.94 577.926 161.765 579.809 160.771C581.693 159.755 583.703 158.972 585.84 158.422C587.977 157.872 590.188 157.544 592.473 157.438V152.456H598.154Z" fill="black" fill-opacity="0.7"/>
<g filter="url(#filter0_f_9_4)">
<rect x="333.4" y="119" width="9.00001" height="286" transform="rotate(90 333.4 119)" fill="#93AFF8"/>
</g>
<g filter="url(#filter1_f_9_4)">
<rect width="9.00001" height="306" transform="matrix(4.37114e-08 1 1 -4.37114e-08 333.4 119)" fill="#93AFF8"/>
</g>
<defs>
<filter id="filter0_f_9_4" x="2.28882e-05" y="71.6" width="380.8" height="103.8" filterUnits="userSpaceOnUse" color-interpolation-filters="sRGB">
<feFlood flood-opacity="0" result="BackgroundImageFix"/>
<feBlend mode="normal" in="SourceGraphic" in2="BackgroundImageFix" result="shape"/>
<feGaussianBlur stdDeviation="23.7" result="effect1_foregroundBlur_9_4"/>
</filter>
<filter id="filter1_f_9_4" x="286" y="71.6" width="400.8" height="103.8" filterUnits="userSpaceOnUse" color-interpolation-filters="sRGB">
<feFlood flood-opacity="0" result="BackgroundImageFix"/>
<feBlend mode="normal" in="SourceGraphic" in2="BackgroundImageFix" result="shape"/>
<feGaussianBlur stdDeviation="23.7" result="effect1_foregroundBlur_9_4"/>
</filter>
</defs>
</svg>
